<svg width="59" height="59" viewBox="0 0 59 59" fill="none" xmlns="http://www.w3.org/2000/svg">
<path d="M31.9584 53.0263C27.8263 53.5379 23.6375 52.7465 19.9768 50.7627C16.3161 48.7788 13.3662 45.7014 11.5389 41.9601C9.71154 38.2189 9.09799 34.0004 9.78385 29.8936C10.4697 25.7867 12.4208 21.9966 15.3646 19.0521L28.4577 5.959C28.7343 5.68278 29.1092 5.52763 29.5001 5.52763C29.8909 5.52763 30.2658 5.68278 30.5424 5.959L43.6355 19.0521C46.2394 21.6543 48.0742 24.9251 48.9374 28.5038C49.8006 32.0825 49.6588 35.8301 48.5276 39.3333M39.3334 49.1667L44.2501 54.0833L54.0834 44.25" stroke="black" stroke-width="4" stroke-linecap="round" stroke-linejoin="round"/>
</svg>
