<svg width="22" height="24" viewBox="0 0 22 24" fill="none" xmlns="http://www.w3.org/2000/svg">
<path d="M11.0724 22.521C9.21827 22.7529 7.33875 22.3943 5.69617 21.4954C4.0536 20.5966 2.72997 19.2023 1.91003 17.5071C1.0901 15.812 0.814794 13.9007 1.12254 12.0399C1.43029 10.1792 2.30574 8.46187 3.62668 7.12777L9.50162 1.19545C9.62571 1.0703 9.79393 1 9.96932 1C10.1447 1 10.3129 1.0703 10.437 1.19545L16.312 7.12777C17.4804 8.30681 18.3036 9.78877 18.691 11.4102C19.0783 13.0317 19.0147 14.7297 18.5071 16.317M14.3816 20.7723L16.5877 23L21 18.5446" stroke="black" stroke-width="2" stroke-linecap="round" stroke-linejoin="round"/>
</svg>
